<svg xmlns="http://www.w3.org/2000/svg" viewBox="0 0 48 48"><defs><style>.cls-1{fill:#1e0f00;}</style></defs><title>Asset 451</title><g id="Layer_2" data-name="Layer 2"><g id="_1" data-name="1"><rect class="cls-1" y="46" width="48" height="2"/><path class="cls-1" d="M17,48H9a1,1,0,0,1-1-1V33a1,1,0,0,1,1-1h8a1,1,0,0,1,1,1V47A1,1,0,0,1,17,48Zm-7-2h6V34H10Z"/><path class="cls-1" d="M34,29H28a1,1,0,0,1-1-1V19a1,1,0,0,1,1-1h6a1,1,0,0,1,1,1v9A1,1,0,0,1,34,29Zm-5-2h4V20H29Z"/><path class="cls-1" d="M39,29H23a1,1,0,0,1-1-1V19a1,1,0,0,1,1-1H39a1,1,0,0,1,1,1v9A1,1,0,0,1,39,29ZM24,27H38V20H24Z"/><path class="cls-1" d="M32,15H16a1,1,0,0,1-.66-1.75l8-7a1,1,0,0,1,1.32,0l8,7A1,1,0,0,1,32,15ZM18.66,13H29.34L24,8.33Z"/><path class="cls-1" d="M17,29H9a1,1,0,0,1-1-1V19a1,1,0,0,1,1-1h8a1,1,0,0,1,1,1v9A1,1,0,0,1,17,29Zm-7-2h6V20H10Z"/><rect class="cls-1" x="7" y="32" width="12" height="2"/><rect class="cls-1" x="21" y="27" width="20" height="2"/><path class="cls-1" d="M34,43H28a1,1,0,0,1-1-1V33a1,1,0,0,1,1-1h6a1,1,0,0,1,1,1v9A1,1,0,0,1,34,43Zm-5-2h4V34H29Z"/><path class="cls-1" d="M39,43H23a1,1,0,0,1-1-1V33a1,1,0,0,1,1-1H39a1,1,0,0,1,1,1v9A1,1,0,0,1,39,43ZM24,41H38V34H24Z"/><rect class="cls-1" x="21" y="41" width="20" height="2"/><rect class="cls-1" x="7" y="27" width="12" height="2"/><rect class="cls-1" x="13" y="41" width="2" height="2"/><path class="cls-1" d="M45,48H3a1,1,0,0,1-1-1V17H4V46H44V17h2V47A1,1,0,0,1,45,48Z"/><path class="cls-1" d="M46.38,19.79,24,2.27,1.62,19.79.38,18.21l23-18a1,1,0,0,1,1.24,0l23,18Z"/></g></g></svg>